<svg width="800" height="410" viewBox="0 0 800 410" fill="none" xmlns="http://www.w3.org/2000/svg">
<mask id="mask0_207_163" style="mask-type:alpha" maskUnits="userSpaceOnUse" x="0" y="0" width="800" height="410">
<rect width="800" height="410" rx="12" fill="url(#paint0_linear_207_163)"/>
</mask>
<g mask="url(#mask0_207_163)">
<rect opacity="0.6" width="800" height="410" rx="12" fill="url(#paint1_linear_207_163)"/>
<rect width="800" height="410" rx="12" fill="url(#paint2_linear_207_163)"/>
<path opacity="0.3" d="M556.552 202.579C531.372 202.474 507.177 212.36 489.272 230.068C471.367 247.776 461.214 271.863 461.037 297.047C461.019 309.47 463.481 321.771 468.28 333.229C473.079 344.687 480.117 355.071 488.982 363.773C492.736 367.462 497.79 369.53 503.053 369.53C508.317 369.53 513.37 367.462 517.124 363.773C518.972 361.954 520.439 359.786 521.441 357.395C522.442 355.004 522.958 352.438 522.958 349.845C522.958 347.253 522.442 344.686 521.441 342.295C520.439 339.904 518.972 337.736 517.124 335.918C511.959 330.836 507.856 324.777 505.055 318.093C502.255 311.409 500.813 304.235 500.813 296.988C500.813 289.741 502.255 282.566 505.055 275.882C507.856 269.199 511.959 263.139 517.124 258.057C527.625 247.725 541.765 241.934 556.496 241.934C571.226 241.934 585.366 247.725 595.867 258.057C601.033 263.139 605.135 269.199 607.936 275.882C610.736 282.566 612.179 289.741 612.179 296.988C612.179 304.235 610.736 311.409 607.936 318.093C605.135 324.777 601.033 330.836 595.867 335.918C594.02 337.736 592.552 339.903 591.551 342.294C590.549 344.685 590.034 347.251 590.034 349.843C590.034 352.434 590.549 355.001 591.551 357.391C592.552 359.782 594.02 361.949 595.867 363.767C599.621 367.457 604.674 369.524 609.938 369.524C615.202 369.524 620.255 367.457 624.009 363.767C632.896 355.077 639.957 344.698 644.777 333.241C649.598 321.783 652.079 309.477 652.078 297.047C651.901 271.861 641.746 247.773 623.839 230.064C605.932 212.355 581.734 202.471 556.552 202.579Z" fill="url(#paint3_linear_207_163)"/>
<path opacity="0.3" d="M804.447 40.0009C782.949 39.9025 762.289 48.3262 747 63.4238C731.711 78.5214 723.042 99.0601 722.894 120.534C722.894 142.139 731.486 162.86 746.78 178.137C762.074 193.414 782.818 201.996 804.447 201.996C826.076 201.996 846.819 193.414 862.114 178.137C877.408 162.86 886 142.139 886 120.534C885.852 99.0601 877.183 78.5214 861.894 63.4238C846.605 48.3262 825.945 39.9025 804.447 40.0009ZM804.447 163.068C796.045 162.973 787.859 160.397 780.92 155.665C773.98 150.933 768.597 144.256 765.448 136.475C762.299 128.693 761.524 120.155 763.222 111.936C764.92 103.716 769.015 96.1811 774.99 90.2803C780.965 84.3795 788.554 80.3762 796.802 78.7742C805.05 77.1722 813.588 78.0431 821.342 81.2774C829.095 84.5117 835.718 89.9647 840.375 96.9501C845.033 103.936 847.518 112.141 847.518 120.534C847.486 126.152 846.346 131.709 844.164 136.886C841.982 142.064 838.801 146.762 834.801 150.712C830.802 154.662 826.063 157.786 820.855 159.906C815.646 162.026 810.071 163.101 804.447 163.068Z" fill="url(#paint4_linear_207_163)"/>
</g>
<defs>
<linearGradient id="paint0_linear_207_163" x1="8.05552" y1="125" x2="763.747" y2="398.91" gradientUnits="userSpaceOnUse">
<stop stop-color="#00A5F0"/>
<stop offset="1" stop-color="#00D7D7"/>
</linearGradient>
<linearGradient id="paint1_linear_207_163" x1="266.875" y1="552.076" x2="511.049" y2="77.0498" gradientUnits="userSpaceOnUse">
<stop stop-color="#0B6EB6"/>
<stop offset="1" stop-color="#00D7D7" stop-opacity="0"/>
</linearGradient>
<linearGradient id="paint2_linear_207_163" x1="8.05552" y1="125" x2="763.747" y2="398.91" gradientUnits="userSpaceOnUse">
<stop stop-color="#00A5F0"/>
<stop offset="1" stop-color="#03E7E7"/>
</linearGradient>
<linearGradient id="paint3_linear_207_163" x1="626.317" y1="379.71" x2="505.597" y2="254.973" gradientUnits="userSpaceOnUse">
<stop stop-color="white"/>
<stop offset="1" stop-color="white" stop-opacity="0"/>
</linearGradient>
<linearGradient id="paint4_linear_207_163" x1="752.931" y1="24.4395" x2="765.679" y2="161.277" gradientUnits="userSpaceOnUse">
<stop stop-color="white"/>
<stop offset="1" stop-color="white" stop-opacity="0"/>
</linearGradient>
</defs>
</svg>
